<svg width="15" height="16" viewBox="0 0 15 16" fill="none" xmlns="http://www.w3.org/2000/svg">
<path d="M2 0C1.46957 0 0.960859 0.210714 0.585786 0.585786C0.210714 0.960859 0 1.46957 0 2V4C0 4.53043 0.210714 5.03914 0.585786 5.41421C0.960859 5.78929 1.46957 6 2 6H10C10.5304 6 11.0391 5.78929 11.4142 5.41421C11.7893 5.03914 12 4.53043 12 4V2C12 1.46957 11.7893 0.960859 11.4142 0.585786C11.0391 0.210714 10.5304 0 10 0H2ZM1 2C1 1.73478 1.10536 1.48043 1.29289 1.29289C1.48043 1.10536 1.73478 1 2 1H10C10.2652 1 10.5196 1.10536 10.7071 1.29289C10.8946 1.48043 11 1.73478 11 2V4C11 4.26522 10.8946 4.51957 10.7071 4.70711C10.5196 4.89464 10.2652 5 10 5H2C1.73478 5 1.48043 4.89464 1.29289 4.70711C1.10536 4.51957 1 4.26522 1 4V2ZM4 11.5C3.86739 11.5 3.74021 11.5527 3.64645 11.6464C3.55268 11.7402 3.5 11.8674 3.5 12C3.5 12.1326 3.55268 12.2598 3.64645 12.3536C3.74021 12.4473 3.86739 12.5 4 12.5H8C8.13261 12.5 8.25979 12.4473 8.35355 12.3536C8.44732 12.2598 8.5 12.1326 8.5 12C8.5 11.8674 8.44732 11.7402 8.35355 11.6464C8.25979 11.5527 8.13261 11.5 8 11.5H4ZM8.879 8H2C1.46957 8 0.960859 8.21071 0.585786 8.58579C0.210714 8.96086 0 9.46957 0 10V14C0 14.5304 0.210714 15.0391 0.585786 15.4142C0.960859 15.7893 1.46957 16 2 16H10C10.5304 16 11.0391 15.7893 11.4142 15.4142C11.7893 15.0391 12 14.5304 12 14V12.915C11.6764 13.0289 11.3236 13.0289 11 12.915V14C11 14.2652 10.8946 14.5196 10.7071 14.7071C10.5196 14.8946 10.2652 15 10 15H2C1.73478 15 1.48043 14.8946 1.29289 14.7071C1.10536 14.5196 1 14.2652 1 14V10C1 9.73478 1.10536 9.48043 1.29289 9.29289C1.48043 9.10536 1.73478 9 2 9H8.085C8.15948 8.78913 8.28047 8.59773 8.439 8.44L8.879 8ZM15 5.5C15 5.36739 14.9473 5.24021 14.8536 5.14645C14.7598 5.05268 14.6326 5 14.5 5C14.3674 5 14.2402 5.05268 14.1464 5.14645C14.0527 5.24021 14 5.36739 14 5.5V7.5C14 7.89782 13.842 8.27936 13.5607 8.56066C13.2794 8.84196 12.8978 9 12.5 9H10.707L11.854 7.854C11.9479 7.76011 12.0006 7.63278 12.0006 7.5C12.0006 7.36722 11.9479 7.23989 11.854 7.146C11.7601 7.05211 11.6328 6.99937 11.5 6.99937C11.3672 6.99937 11.2399 7.05211 11.146 7.146L9.146 9.146C9.09944 9.19245 9.06249 9.24762 9.03729 9.30837C9.01208 9.36911 8.99911 9.43423 8.99911 9.5C8.99911 9.56577 9.01208 9.63089 9.03729 9.69163C9.06249 9.75238 9.09944 9.80755 9.146 9.854L11.146 11.854C11.2399 11.9479 11.3672 12.0006 11.5 12.0006C11.6328 12.0006 11.7601 11.9479 11.854 11.854C11.9479 11.7601 12.0006 11.6328 12.0006 11.5C12.0006 11.3672 11.9479 11.2399 11.854 11.146L10.707 10H12.5C12.8283 10 13.1534 9.93534 13.4567 9.8097C13.76 9.68406 14.0356 9.49991 14.2678 9.26777C14.4999 9.03562 14.6841 8.76002 14.8097 8.45671C14.9353 8.15339 15 7.8283 15 7.5V5.5Z" fill="#B8B8B8"/>
</svg>
