<svg width="313" height="313" viewBox="0 0 313 313" fill="none" xmlns="http://www.w3.org/2000/svg">
<path d="M156.5 313C198.006 313 237.813 296.512 267.162 267.162C296.512 237.813 313 198.006 313 156.5C313 114.994 296.512 75.1872 267.162 45.8378C237.813 16.4883 198.006 0 156.5 0C114.994 0 75.1872 16.4883 45.8378 45.8378C16.4883 75.1872 0 114.994 0 156.5C0 198.006 16.4883 237.813 45.8378 267.162C75.1872 296.512 114.994 313 156.5 313ZM174.693 128.878L155.131 220.919C153.761 227.571 155.698 231.346 161.078 231.346C164.873 231.346 170.605 229.977 174.498 226.534L172.776 234.672C167.162 241.44 154.779 246.37 144.117 246.37C130.365 246.37 124.515 238.115 128.31 220.567L142.748 152.724C144 146.993 142.865 144.919 137.133 143.53L128.31 141.946L129.915 134.492L174.693 128.878ZM156.5 107.594C151.312 107.594 146.336 105.533 142.667 101.864C138.999 98.1953 136.938 93.2195 136.938 88.0312C136.938 82.843 138.999 77.8672 142.667 74.1985C146.336 70.5298 151.312 68.4688 156.5 68.4688C161.688 68.4688 166.664 70.5298 170.333 74.1985C174.001 77.8672 176.062 82.843 176.062 88.0312C176.062 93.2195 174.001 98.1953 170.333 101.864C166.664 105.533 161.688 107.594 156.5 107.594Z" fill="#B8B8B8"/>
</svg>
